<svg width="64" height="64" viewBox="0 0 1000 1000" fill="none" xmlns="http://www.w3.org/2000/svg">
    <g fill="#35d0ba">
        <path d="M146.6,312.2l273.4-157.9c7.6,3.1,15.8,4.8,24.4,4.8c35.8,0,65-29.2,65-65s-29.2-65-65-65c-35.8,0-64.8,29-65,64.7L97,256.9
      c-23.1,13.4-37.5,38.3-37.5,65.1v347.2c0,26.7,14.4,51.7,37.6,65.1l318,183.6c4.4,2.5,9.4,3.9,14.4,3.9s10-1.3,14.4-3.9
      c9-5.2,14.4-14.6,14.4-25v-9.3c0-15.2-8.2-29.3-21.3-36.9L146.6,679c-8.9-5.2-14.5-14.8-14.5-25.1V337.3
      C132.1,327,137.7,317.3,146.6,312.2z"/>
        <path d="M903.6,276.8L585.4,93.1c-4.5-2.6-9.5-3.9-14.6-3.9s-10.1,1.4-14.6,3.9c-9.1,5.3-14.6,14.7-14.6,25.3v12.9
      c0,12.6,6.8,24.3,17.7,30.6L854,332c8.6,4.9,13.9,14.1,13.9,24v318c0,9.9-5.3,19.1-13.9,24l-266.4,150
      c-8.9-4.6-19-7.2-29.6-7.2c-35.8,0-65,29.2-65,65s29.2,65,65,65c32.5,0,59.5-23.9,64.3-55.1l281.4-162.5
      c22.8-13.2,36.9-37.6,36.9-63.9V340.7C940.5,314.4,926.4,289.9,903.6,276.8z"/>
        <path d="M689.4,551L196.9,681.6c-8.6,2.3-16.8-13.8-12-23.6l11.3-23.3c9-18.6,22.7-31,38.9-35.3l488.9-129.6
      c8.6-2.3,16.8,13.8,12,23.6l-13.2,27.4C715,536.7,703.3,547.4,689.4,551z"/>
        <path d="M693,669.3l-304.9,80.8c-5.3,1.4-12.1-15-10-24.2l5.1-21.6c4-17.3,11.7-28.1,21.8-30.7l302.7-80.2
      c5.3-1.4,12.1,15,10,24.2l-5.9,25.4C708.2,657.8,701.6,667,693,669.3z"/>
        <path d="M614.1,358.5l-304.9,80.8c-5.3,1.4-12.1-15-10-24.2l5.1-21.6c4-17.3,11.7-28.1,21.8-30.7l302.7-80.2
      c5.3-1.4,12.1,15,10,24.2l-5.9,25.4C629.2,347,622.7,356.2,614.1,358.5z"/>
        <path d="M778,418.1L285.6,548.6c-8.6,2.3-16.8-13.8-12-23.6l11.3-23.3c9-18.6,22.7-31,38.9-35.3l488.9-129.6
      c8.6-2.3,16.8,13.8,12,23.6l-13.2,27.4C803.7,403.8,792,414.4,778,418.1z"/>
    </g>
</svg>
